<?xml version="1.0" standalone="no"?>
<!DOCTYPE svg PUBLIC "-//W3C//DTD SVG 20010904//EN"
 "http://www.w3.org/TR/2001/REC-SVG-20010904/DTD/svg10.dtd">
<svg version="1.0" xmlns="http://www.w3.org/2000/svg"
 width="426.000000pt" height="426.000000pt" viewBox="0 0 426.000000 426.000000"
 preserveAspectRatio="xMidYMid meet">
<metadata>
Created by potrace 1.14, written by Peter Selinger 2001-2017
</metadata>
<g transform="translate(0.000000,426.000000) scale(0.100000,-0.100000)"
fill="#000000" stroke="none">
<path d="M0 2130 l0 -2130 2130 0 2130 0 0 2130 0 2130 -2130 0 -2130 0 0
-2130z m3182 298 c3 -1004 3 -1013 24 -1058 53 -115 161 -166 371 -177 l123
-6 0 -61 c0 -34 -3 -105 -7 -158 l-6 -98 -151 0 c-222 1 -370 32 -491 106
l-58 34 -37 -25 c-114 -79 -279 -117 -515 -119 l-160 -1 -3 167 -2 168 109 0
c220 0 324 48 383 175 l23 50 3 818 3 817 -141 0 -140 0 0 190 0 190 335 0
335 0 2 -1012z m-1746 711 c391 -54 701 -329 804 -714 28 -103 38 -331 20
-442 -52 -328 -238 -584 -523 -723 -289 -141 -635 -141 -923 0 -340 165 -534
489 -534 890 0 151 20 263 68 382 94 234 244 400 457 506 98 49 220 90 300
101 88 13 242 13 331 0z"/>
<path d="M1110 2777 c-108 -28 -168 -63 -251 -147 -120 -122 -179 -281 -179
-483 1 -194 61 -350 184 -471 120 -120 240 -169 411 -169 171 0 291 49 411
169 84 83 145 196 170 314 24 114 15 291 -20 395 -108 318 -401 476 -726 392z"/>
</g>
</svg>
