<svg width="18" height="20" viewBox="0 0 18 20" fill="none" xmlns="http://www.w3.org/2000/svg">
<path d="M16 1.90884H11.82C11.4 0.801714 10.3 0 9 0C7.7 0 6.6 0.801714 6.18 1.90884H2C0.9 1.90884 0 2.76782 0 3.81768V17.1796C0 18.2294 0.9 19.0884 2 19.0884H16C17.1 19.0884 18 18.2294 18 17.1796V3.81768C18 2.76782 17.1 1.90884 16 1.90884ZM9 1.90884C9.55 1.90884 10 2.33833 10 2.86326C10 3.3882 9.55 3.81768 9 3.81768C8.45 3.81768 8 3.3882 8 2.86326C8 2.33833 8.45 1.90884 9 1.90884ZM9 5.72653C10.66 5.72653 12 7.00545 12 8.58979C12 10.1741 10.66 11.4531 9 11.4531C7.34 11.4531 6 10.1741 6 8.58979C6 7.00545 7.34 5.72653 9 5.72653ZM15 17.1796H3V15.8434C3 13.9346 7 12.8847 9 12.8847C11 12.8847 15 13.9346 15 15.8434V17.1796Z" fill="#17B5B4"/>
</svg>
