<svg width="13" height="25" viewBox="0 0 13 25" fill="none" xmlns="http://www.w3.org/2000/svg">
<path d="M10.7955 6.08204V18.5546C10.7955 20.9515 8.76136 22.8929 6.25 22.8929C3.73864 22.8929 1.70455 20.9515 1.70455 18.5546V4.99747C1.70455 3.50076 2.97727 2.28604 4.54545 2.28604C6.11364 2.28604 7.38636 3.50076 7.38636 4.99747V16.3855C7.38636 16.982 6.875 17.4701 6.25 17.4701C5.625 17.4701 5.11364 16.982 5.11364 16.3855V6.08204H3.40909V16.3855C3.40909 17.8822 4.68182 19.0969 6.25 19.0969C7.81818 19.0969 9.09091 17.8822 9.09091 16.3855V4.99747C9.09091 2.60056 7.05682 0.65918 4.54545 0.65918C2.03409 0.65918 0 2.60056 0 4.99747V18.5546C0 21.8517 2.79545 24.5198 6.25 24.5198C9.70455 24.5198 12.5 21.8517 12.5 18.5546V6.08204H10.7955Z" fill="white"/>
</svg>
